<?xml version="1.0" encoding="UTF-8"?>
<svg id="_圖層_1" data-name="圖層 1" xmlns="http://www.w3.org/2000/svg" viewBox="0 0 96 126">
  <defs>
    <style>
      .cls-1 {
        fill: #595757;
        font-family: jf-openhuninn-2.0, jf-openhuninn-2.0;
        font-size: 14px;
        letter-spacing: .05em;
      }

      .cls-2 {
        fill: #1e201f;
        fill-rule: evenodd;
      }
    </style>
  </defs>
  <g>
    <path class="cls-2" d="M74.71,22.19c-4.79-4.79-12.51-4.79-27.94-4.79s-23.15,0-27.94,4.79-4.79,12.51-4.79,27.94,0,23.15,4.79,27.94c4.79,4.79,12.51,4.79,27.94,4.79s23.15,0,27.94-4.79c4.79-4.79,4.79-12.51,4.79-27.94s0-23.15-4.79-27.94Zm-24.49,46.08h-4.68v-9.36h-4.68l7-9.36,7.04,9.36h-4.68v9.36Zm16.37-7c0,1.92-.69,3.57-2.06,4.94-1.37,1.37-3.02,2.06-4.94,2.06h-4.68v-4.68h4.68c.65,0,1.2-.22,1.65-.67s.67-1,.67-1.65v-16.4h-28.09v16.4c-.02,.65,.2,1.2,.67,1.65,.47,.45,1.04,.67,1.69,.67h4.68v4.68h-4.68c-1.95-.02-3.61-.71-4.98-2.06-1.37-1.35-2.06-3-2.06-4.94v-23.41c0-1.95,.69-3.61,2.06-4.98,1.37-1.37,3.03-2.06,4.98-2.06h23.41c1.92,0,3.57,.69,4.94,2.06,1.37,1.37,2.06,3.03,2.06,4.98v23.41Z"/>
    <path class="cls-2" d="M59.58,35.49h-23.41c-.67,.02-1.24,.26-1.69,.71-.45,.45-.67,1-.67,1.65v4.68h28.09v-4.68c.02-.62-.2-1.17-.67-1.65s-1.02-.71-1.65-.71Zm-21.09,4.68h-2.32v-2.32h2.32v2.32Zm4.68,0h-2.32v-2.32h2.32v2.32Zm16.4,0h-14.04v-2.32h14.04v2.32Z"/>
  </g>
  <text class="cls-1" transform="translate(18.19 106.44)"><tspan x="0" y="0">持續優化</tspan></text>
</svg>