<?xml version="1.0" encoding="UTF-8"?>
<svg id="_圖層_1" data-name="圖層 1" xmlns="http://www.w3.org/2000/svg" viewBox="0 0 96 126">
  <defs>
    <style>
      .cls-1 {
        fill: #595757;
        font-family: jf-openhuninn-2.0, jf-openhuninn-2.0;
        font-size: 14px;
        letter-spacing: .05em;
      }

      .cls-2 {
        fill: #1e201f;
        fill-rule: evenodd;
      }
    </style>
  </defs>
  <path class="cls-2" d="M75.94,22.19c-4.79-4.79-12.51-4.79-27.94-4.79s-23.15,0-27.94,4.79-4.79,12.51-4.79,27.94,0,23.15,4.79,27.94c4.79,4.79,12.51,4.79,27.94,4.79s23.15,0,27.94-4.79c4.79-4.79,4.79-12.51,4.79-27.94s0-23.15-4.79-27.94Zm-10.27,21.27l-18.79,18.79c-.93,.93-2.16,1.44-3.47,1.44s-2.55-.51-3.47-1.44l-7.51-7.51c-1.92-1.92-1.92-5.03,0-6.95,1.92-1.92,5.03-1.92,6.95,0l4.04,4.04,15.31-15.31c1.91-1.91,5.03-1.92,6.95,0,1.92,1.92,1.92,5.03,0,6.95Z"/>
  <text class="cls-1" transform="translate(18.85 106.44)"><tspan x="0" y="0">驗收優化</tspan></text>
</svg>