<?xml version="1.0" encoding="UTF-8"?>
<svg id="_圖層_1" data-name="圖層 1" xmlns="http://www.w3.org/2000/svg" viewBox="0 0 96 126">
  <defs>
    <style>
      .cls-1 {
        fill: #595757;
        font-family: jf-openhuninn-2.0, jf-openhuninn-2.0;
        font-size: 14px;
        letter-spacing: .05em;
      }

      .cls-2 {
        fill: #1e201f;
        fill-rule: evenodd;
      }
    </style>
  </defs>
  <path class="cls-2" d="M75.94,22.19c-4.79-4.79-12.51-4.79-27.94-4.79s-23.15,0-27.94,4.79-4.79,12.51-4.79,27.94,0,23.15,4.79,27.94c4.79,4.79,12.51,4.79,27.94,4.79s23.15,0,27.94-4.79c4.79-4.79,4.79-12.51,4.79-27.94s0-23.15-4.79-27.94ZM37.91,61.69c-.58,.54-1.31,.81-2.04,.81-.79,0-1.58-.31-2.16-.93l-8.27-8.78c-.29-.27-.53-.61-.69-.99-.47-1.09-.26-2.35,.55-3.21l8.41-8.9c1.13-1.19,3-1.25,4.2-.12,1.19,1.12,1.25,3,.12,4.19l-6.48,6.86,6.48,6.88c1.12,1.19,1.07,3.07-.12,4.2Zm15.62-19.03l-5.94,17.81c-.41,1.24-1.57,2.03-2.81,2.03-.31,0-.63-.05-.94-.15-1.56-.52-2.4-2.2-1.88-3.75l5.94-17.81c.52-1.56,2.18-2.4,3.75-1.88,1.56,.52,2.4,2.2,1.88,3.75Zm17.09,10.06l-8.9,8.9c-.58,.58-1.34,.87-2.1,.87s-1.52-.29-2.1-.87c-1.16-1.16-1.16-3.04,0-4.2l6.81-6.81-6.81-6.81c-1.16-1.16-1.16-3.04,0-4.2s3.04-1.16,4.2,0l8.9,8.9c1.16,1.16,1.16,3.04,0,4.2Z"/>
  <text class="cls-1" transform="translate(18.97 106.44)"><tspan x="0" y="0">開發回饋</tspan></text>
</svg>