<svg width="15" height="17" viewBox="0 0 15 17" fill="none" xmlns="http://www.w3.org/2000/svg">
<path d="M12.3881 5.72351C13.8305 5.72351 14.9999 4.55418 14.9999 3.11175C14.9999 1.66932 13.8305 0.5 12.3881 0.5C10.9457 0.5 9.77637 1.66932 9.77637 3.11175C9.77637 4.55418 10.9457 5.72351 12.3881 5.72351Z" fill="#292D32"/>
<path d="M2.61175 5.72351C4.05418 5.72351 5.2235 4.55418 5.2235 3.11175C5.2235 1.66932 4.05418 0.5 2.61175 0.5C1.16932 0.5 0 1.66932 0 3.11175C0 4.55418 1.16932 5.72351 2.61175 5.72351Z" fill="#292D32"/>
<path d="M12.3881 16.577C13.8305 16.577 14.9999 15.4077 14.9999 13.9653C14.9999 12.5228 13.8305 11.3535 12.3881 11.3535C10.9457 11.3535 9.77637 12.5228 9.77637 13.9653C9.77637 15.4077 10.9457 16.577 12.3881 16.577Z" fill="#292D32"/>
<path d="M2.61175 16.577C4.05418 16.577 5.2235 15.4077 5.2235 13.9653C5.2235 12.5228 4.05418 11.3535 2.61175 11.3535C1.16932 11.3535 0 12.5228 0 13.9653C0 15.4077 1.16932 16.577 2.61175 16.577Z" fill="#292D32"/>
</svg>
