<svg width="25" height="26" viewBox="0 0 25 26" fill="none" xmlns="http://www.w3.org/2000/svg">
<path d="M13.5417 8.83333C14.3705 8.83333 15.1653 9.16257 15.7514 9.74862C16.3374 10.3347 16.6667 11.1295 16.6667 11.9583C16.6667 12.2346 16.7764 12.4996 16.9718 12.6949C17.1671 12.8903 17.4321 13 17.7083 13C17.9846 13 18.2496 12.8903 18.4449 12.6949C18.6403 12.4996 18.75 12.2346 18.75 11.9583C18.75 10.577 18.2013 9.25224 17.2245 8.27549C16.2478 7.29873 14.923 6.75 13.5417 6.75C13.2654 6.75 13.0004 6.85975 12.8051 7.0551C12.6097 7.25045 12.5 7.5154 12.5 7.79167C12.5 8.06793 12.6097 8.33289 12.8051 8.52824C13.0004 8.72359 13.2654 8.83333 13.5417 8.83333Z" fill="#231F20"/>
<path d="M13.5417 4.66671C15.4755 4.66671 17.3302 5.43493 18.6977 6.80239C20.0651 8.16984 20.8333 10.0245 20.8333 11.9584C20.8333 12.2346 20.9431 12.4996 21.1384 12.6949C21.3338 12.8903 21.5987 13 21.875 13C22.1513 13 22.4162 12.8903 22.6116 12.6949C22.8069 12.4996 22.9167 12.2346 22.9167 11.9584C22.9167 9.47197 21.9289 7.0874 20.1708 5.32925C18.4126 3.57109 16.0281 2.58337 13.5417 2.58337C13.2654 2.58337 13.0004 2.69312 12.8051 2.88847C12.6097 3.08382 12.5 3.34877 12.5 3.62504C12.5 3.90131 12.6097 4.16626 12.8051 4.36161C13.0004 4.55696 13.2654 4.66671 13.5417 4.66671Z" fill="#231F20"/>
<path d="M22.6564 17.073C22.5991 16.9057 22.5002 16.7558 22.369 16.6374C22.2378 16.5189 22.0786 16.4358 21.9064 16.3959L15.6564 14.9688C15.4868 14.9303 15.3102 14.935 15.1428 14.9823C14.9754 15.0296 14.8225 15.1181 14.6981 15.2396C14.5522 15.375 14.5418 15.3855 13.8647 16.6771C11.6181 15.6419 9.81786 13.8343 8.79183 11.5834C10.1147 10.9167 10.1252 10.9167 10.2606 10.7605C10.3822 10.636 10.4706 10.4832 10.5179 10.3158C10.5652 10.1484 10.5699 9.97177 10.5314 9.80212L9.10433 3.62504C9.06438 3.45285 8.98126 3.29366 8.86281 3.16245C8.74436 3.03124 8.59447 2.93233 8.42725 2.87504C8.18398 2.78815 7.93278 2.72535 7.67725 2.68754C7.41397 2.62649 7.1453 2.5916 6.87516 2.58337C5.60433 2.58337 4.38555 3.08821 3.48694 3.98682C2.58833 4.88543 2.0835 6.10421 2.0835 7.37504C2.08901 11.6279 3.78088 15.7049 6.78808 18.7121C9.79528 21.7193 13.8723 23.4112 18.1252 23.4167C18.7544 23.4167 19.3775 23.2928 19.9589 23.052C20.5402 22.8112 21.0684 22.4582 21.5134 22.0133C21.9583 21.5683 22.3113 21.0401 22.5521 20.4587C22.7929 19.8774 22.9168 19.2543 22.9168 18.625C22.9172 18.3599 22.8963 18.0952 22.8543 17.8334C22.8106 17.5746 22.7443 17.3202 22.6564 17.073Z" fill="#231F20"/>
</svg>
