<svg width="25" height="26" viewBox="0 0 25 26" fill="none" xmlns="http://www.w3.org/2000/svg">
<path d="M16.5 3.25H5.5C4.77065 3.25 4.07118 3.53973 3.55546 4.05546C3.03973 4.57118 2.75 5.27065 2.75 6V17C2.75 17.7293 3.03973 18.4288 3.55546 18.9445C4.07118 19.4603 4.77065 19.75 5.5 19.75H16.5C17.2293 19.75 17.9288 19.4603 18.4445 18.9445C18.9603 18.4288 19.25 17.7293 19.25 17V6C19.25 5.27065 18.9603 4.57118 18.4445 4.05546C17.9288 3.53973 17.2293 3.25 16.5 3.25ZM5.5 5.08333H16.5C16.7431 5.08333 16.9763 5.17991 17.1482 5.35182C17.3201 5.52373 17.4167 5.75688 17.4167 6V13.6633L14.4833 11.1608C14.0288 10.7869 13.4586 10.5824 12.87 10.5824C12.2814 10.5824 11.7112 10.7869 11.2567 11.1608L4.58333 16.725V6C4.58333 5.75688 4.67991 5.52373 4.85182 5.35182C5.02373 5.17991 5.25688 5.08333 5.5 5.08333Z" fill="#231F20"/>
<path d="M7.3335 9.66663C8.09289 9.66663 8.7085 9.05102 8.7085 8.29163C8.7085 7.53223 8.09289 6.91663 7.3335 6.91663C6.5741 6.91663 5.9585 7.53223 5.9585 8.29163C5.9585 9.05102 6.5741 9.66663 7.3335 9.66663Z" fill="#231F20"/>
<rect x="6" y="6.5" width="16" height="17" fill="white"/>
<path d="M19.5 6.25H8.5C7.77065 6.25 7.07118 6.53973 6.55546 7.05546C6.03973 7.57118 5.75 8.27065 5.75 9V20C5.75 20.7293 6.03973 21.4288 6.55546 21.9445C7.07118 22.4603 7.77065 22.75 8.5 22.75H19.5C20.2293 22.75 20.9288 22.4603 21.4445 21.9445C21.9603 21.4288 22.25 20.7293 22.25 20V9C22.25 8.27065 21.9603 7.57118 21.4445 7.05546C20.9288 6.53973 20.2293 6.25 19.5 6.25ZM8.5 8.08333H19.5C19.7431 8.08333 19.9763 8.17991 20.1482 8.35182C20.3201 8.52373 20.4167 8.75688 20.4167 9V16.6633L17.4833 14.1608C17.0288 13.7869 16.4586 13.5824 15.87 13.5824C15.2814 13.5824 14.7112 13.7869 14.2567 14.1608L7.58333 19.725V9C7.58333 8.75688 7.67991 8.52373 7.85182 8.35182C8.02373 8.17991 8.25688 8.08333 8.5 8.08333Z" fill="#231F20"/>
<path d="M10.3335 12.6666C11.0929 12.6666 11.7085 12.051 11.7085 11.2916C11.7085 10.5322 11.0929 9.91663 10.3335 9.91663C9.5741 9.91663 8.9585 10.5322 8.9585 11.2916C8.9585 12.051 9.5741 12.6666 10.3335 12.6666Z" fill="#231F20"/>
</svg>
