<?xml version="1.0" encoding="UTF-8"?>
<svg id="flowSvg1" data-name="flowSvg1" xmlns="http://www.w3.org/2000/svg" viewBox="0 0 96 126">
  <defs>
    <style>
      .cls-1 {
        fill: #F1B41B;
        font-family: jf-openhuninn-2.0, jf-openhuninn-2.0;
        font-size: 14px;
        letter-spacing: .05em;
      }

      .cls-2 {
        fill: #F1B41B;
        fill-rule: evenodd;
      }
    </style>
  </defs>
  <g>
    <path class="cls-2" d="M36.11,38.74c-2.36,2.34-3.68,5.53-3.67,8.85,0,3.32,1.32,6.5,3.66,8.85,4.89,4.89,12.81,4.89,17.7,0,4.89-4.89,4.89-12.81,0-17.7-4.89-4.89-12.81-4.89-17.7,0Z"/>
    <path class="cls-2" d="M75.94,22.19c-4.79-4.79-12.51-4.79-27.94-4.79s-23.15,0-27.94,4.79-4.79,12.51-4.79,27.94,0,23.15,4.79,27.94c4.79,4.79,12.51,4.79,27.94,4.79s23.15,0,27.94-4.79c4.79-4.79,4.79-12.51,4.79-27.94s0-23.15-4.79-27.94Zm-9.55,46.83c-1.75,1.75-4.6,1.75-6.35,0l-6.91-6.91c-2.49,1.41-5.31,2.15-8.17,2.15-4.42,0-8.66-1.76-11.79-4.88-6.51-6.51-6.51-17.06,0-23.57,5.29-5.29,13.45-6.41,19.97-2.74,8.02,4.52,10.86,14.68,6.34,22.7l6.91,6.91c1.75,1.75,1.75,4.6,0,6.35Z"/>
  </g>
  <text class="cls-1" transform="translate(19.59 106.44)"><tspan x="0" y="0">需求分析</tspan></text>
</svg>