<svg width="200" height="200" viewBox="0 0 200 200" fill="none" xmlns="http://www.w3.org/2000/svg">
<mask id="path-1-inside-1_131_1010" fill="white">
<path fill-rule="evenodd" clip-rule="evenodd" d="M141.393 0H141.421H200V200C167.623 200 141.393 173.77 141.393 141.393V58.6066H58.6066C26.2295 58.6066 0 32.377 0 0H141.393ZM60.9835 138.552C49.5354 127.104 49.5354 108.552 60.9835 97.1038C72.4316 85.6557 90.9836 85.6557 102.432 97.1038C113.88 108.552 113.88 127.104 102.432 138.552C90.9836 150 72.4316 150 60.9835 138.552Z"/>
</mask>
<path d="M200 0H205V-5H200V0ZM200 200V205H205V200H200ZM141.393 58.6066H146.393V53.6066H141.393V58.6066ZM0 0V-5H-5V0H0ZM60.9835 97.1038L64.5191 100.639H64.5191L60.9835 97.1038ZM102.432 97.1038L98.8961 100.639L102.432 97.1038ZM141.421 -5H141.393V5H141.421V-5ZM200 -5H141.421V5H200V-5ZM205 200V0H195V200H205ZM136.393 141.393C136.393 176.532 164.862 205 200 205V195C170.384 195 146.393 171.009 146.393 141.393H136.393ZM136.393 58.6066V141.393H146.393V58.6066H136.393ZM58.6066 63.6066H141.393V53.6066H58.6066V63.6066ZM-5 0C-5 35.1385 23.4681 63.6066 58.6066 63.6066V53.6066C28.9909 53.6066 5 29.6156 5 0H-5ZM141.393 -5H0V5H141.393V-5ZM57.448 93.5683C44.0473 106.969 44.0473 128.687 57.448 142.087L64.5191 135.016C55.0236 125.521 55.0236 110.135 64.5191 100.639L57.448 93.5683ZM105.967 93.5683C92.5665 80.1676 70.8487 80.1676 57.448 93.5683L64.5191 100.639C74.0145 91.1439 89.4007 91.1439 98.8961 100.639L105.967 93.5683ZM105.967 142.087C119.368 128.687 119.368 106.969 105.967 93.5683L98.8961 100.639C108.392 110.135 108.392 125.521 98.8961 135.016L105.967 142.087ZM57.448 142.087C70.8487 155.488 92.5665 155.488 105.967 142.087L98.8961 135.016C89.4007 144.512 74.0145 144.512 64.5191 135.016L57.448 142.087Z" fill="black" fill-opacity="0.1" mask="url(#path-1-inside-1_131_1010)"/>
</svg>
